# xmcd
#
# Track frame offsets:
# 150
# 23530
# 37722
# 54052
# 64965
# 75957
# 101835
# 115400
# 125075
# 133517
# 144157
# 156882
# 167990
# 183632
# 199035
# 231537
# 257552
#
# Disc length: 3902 seconds
#
#
# Revision: 1
# Processed by: cddbd v1.5.2PL0 Copyright (c) Steve Scherf et al.
# Submitted via: FreeRIP 2.951 
#
DISCID=e20f3c11
DTITLE=Artie Shaw - Picture Disk
DYEAR=1900
DGENRE=Jazz
TTITLE0=Copenhagen
TTITLE1=Rose room
TTITLE2=El rancho
TTITLE3=It had to be you
TTITLE4=My heart stood still
TTITLE5=St. Louis Blues
TTITLE6=What's new
TTITLE7=The yam
TTITLE8=I cried for you
TTITLE9=You got me
TTITLE10=Rockin' the state
TTITLE11=Harvest moon
TTITLE12=Jungle drums
TTITLE13=Lover come back to me
TTITLE14=Dancing on the ceiling
TTITLE15=Too marvelous for words
TTITLE16=Rough ridin'
EXTD=
EXTT0=
EXTT1=
EXTT2=
EXTT3=
EXTT4=
EXTT5=
EXTT6=
EXTT7=
EXTT8=
EXTT9=
EXTT10=
EXTT11=
EXTT12=
EXTT13=
EXTT14=
EXTT15=
EXTT16=
PLAYORDER=
